<svg xmlns="http://www.w3.org/2000/svg" xmlns:xlink="http://www.w3.org/1999/xlink" width="1080" zoomAndPan="magnify" viewBox="0 0 810 809.999993" height="1080" preserveAspectRatio="xMidYMid meet" version="1.0"><defs><g/><clipPath id="da1fa75330"><path d="M 69 168 L 269 168 L 269 293 L 69 293 Z M 69 168 " clip-rule="nonzero"/></clipPath><clipPath id="2b66174494"><path d="M 292.574219 261.660156 L 86.292969 335.199219 L 12.753906 128.914062 L 219.039062 55.378906 Z M 292.574219 261.660156 " clip-rule="nonzero"/></clipPath><clipPath id="ece7378e99"><path d="M 292.574219 261.660156 L 86.292969 335.199219 L 12.753906 128.914062 L 219.039062 55.378906 Z M 292.574219 261.660156 " clip-rule="nonzero"/></clipPath><clipPath id="48d041eaad"><path d="M 292.574219 261.660156 L 86.292969 335.199219 L 12.753906 128.914062 L 219.039062 55.378906 Z M 292.574219 261.660156 " clip-rule="nonzero"/></clipPath><clipPath id="069587beb3"><path d="M 69 168 L 252 168 L 252 293 L 69 293 Z M 69 168 " clip-rule="nonzero"/></clipPath><clipPath id="8c3dab1dea"><path d="M 292.574219 261.660156 L 86.292969 335.199219 L 12.753906 128.914062 L 219.039062 55.378906 Z M 292.574219 261.660156 " clip-rule="nonzero"/></clipPath><clipPath id="a401cd2c76"><path d="M 292.574219 261.660156 L 86.292969 335.199219 L 12.753906 128.914062 L 219.039062 55.378906 Z M 292.574219 261.660156 " clip-rule="nonzero"/></clipPath><clipPath id="718021957b"><path d="M 292.574219 261.660156 L 86.292969 335.199219 L 12.753906 128.914062 L 219.039062 55.378906 Z M 292.574219 261.660156 " clip-rule="nonzero"/></clipPath><clipPath id="2fd135a23a"><path d="M 246 196 L 269 196 L 269 219 L 246 219 Z M 246 196 " clip-rule="nonzero"/></clipPath><clipPath id="b4f26f24d2"><path d="M 292.574219 261.660156 L 86.292969 335.199219 L 12.753906 128.914062 L 219.039062 55.378906 Z M 292.574219 261.660156 " clip-rule="nonzero"/></clipPath><clipPath id="a57be70874"><path d="M 292.574219 261.660156 L 86.292969 335.199219 L 12.753906 128.914062 L 219.039062 55.378906 Z M 292.574219 261.660156 " clip-rule="nonzero"/></clipPath><clipPath id="29f21b04c3"><path d="M 292.574219 261.660156 L 86.292969 335.199219 L 12.753906 128.914062 L 219.039062 55.378906 Z M 292.574219 261.660156 " clip-rule="nonzero"/></clipPath><clipPath id="9680407448"><path d="M 69 168 L 252 168 L 252 291 L 69 291 Z M 69 168 " clip-rule="nonzero"/></clipPath><clipPath id="55677a4581"><path d="M 292.574219 261.660156 L 86.292969 335.199219 L 12.753906 128.914062 L 219.039062 55.378906 Z M 292.574219 261.660156 " clip-rule="nonzero"/></clipPath><clipPath id="b3f6afc393"><path d="M 292.574219 261.660156 L 86.292969 335.199219 L 12.753906 128.914062 L 219.039062 55.378906 Z M 292.574219 261.660156 " clip-rule="nonzero"/></clipPath><clipPath id="727be36353"><path d="M 292.574219 261.660156 L 86.292969 335.199219 L 12.753906 128.914062 L 219.039062 55.378906 Z M 292.574219 261.660156 " clip-rule="nonzero"/></clipPath><clipPath id="85e6c8862e"><path d="M 73 286 L 86 286 L 86 293 L 73 293 Z M 73 286 " clip-rule="nonzero"/></clipPath><clipPath id="0c3234ab9f"><path d="M 292.574219 261.660156 L 86.292969 335.199219 L 12.753906 128.914062 L 219.039062 55.378906 Z M 292.574219 261.660156 " clip-rule="nonzero"/></clipPath><clipPath id="761a6b5fbc"><path d="M 292.574219 261.660156 L 86.292969 335.199219 L 12.753906 128.914062 L 219.039062 55.378906 Z M 292.574219 261.660156 " clip-rule="nonzero"/></clipPath><clipPath id="bad415c124"><path d="M 292.574219 261.660156 L 86.292969 335.199219 L 12.753906 128.914062 L 219.039062 55.378906 Z M 292.574219 261.660156 " clip-rule="nonzero"/></clipPath><clipPath id="b965fa4c67"><path d="M 50 148 L 125 148 L 125 223 L 50 223 Z M 50 148 " clip-rule="nonzero"/></clipPath><clipPath id="4a661c2770"><path d="M 292.574219 261.660156 L 86.292969 335.199219 L 12.753906 128.914062 L 219.039062 55.378906 Z M 292.574219 261.660156 " clip-rule="nonzero"/></clipPath><clipPath id="8f495b59be"><path d="M 292.574219 261.660156 L 86.292969 335.199219 L 12.753906 128.914062 L 219.039062 55.378906 Z M 292.574219 261.660156 " clip-rule="nonzero"/></clipPath><clipPath id="ed7c4c3d7e"><path d="M 292.574219 261.660156 L 86.292969 335.199219 L 12.753906 128.914062 L 219.039062 55.378906 Z M 292.574219 261.660156 " clip-rule="nonzero"/></clipPath><clipPath id="a5927fcc9a"><path d="M 50 148 L 123 148 L 123 201 L 50 201 Z M 50 148 " clip-rule="nonzero"/></clipPath><clipPath id="b63056809e"><path d="M 292.574219 261.660156 L 86.292969 335.199219 L 12.753906 128.914062 L 219.039062 55.378906 Z M 292.574219 261.660156 " clip-rule="nonzero"/></clipPath><clipPath id="4bfb91d58d"><path d="M 292.574219 261.660156 L 86.292969 335.199219 L 12.753906 128.914062 L 219.039062 55.378906 Z M 292.574219 261.660156 " clip-rule="nonzero"/></clipPath><clipPath id="8d03484440"><path d="M 292.574219 261.660156 L 86.292969 335.199219 L 12.753906 128.914062 L 219.039062 55.378906 Z M 292.574219 261.660156 " clip-rule="nonzero"/></clipPath><clipPath id="41b3120165"><path d="M 89 199 L 98 199 L 98 210 L 89 210 Z M 89 199 " clip-rule="nonzero"/></clipPath><clipPath id="f45d1690cc"><path d="M 292.574219 261.660156 L 86.292969 335.199219 L 12.753906 128.914062 L 219.039062 55.378906 Z M 292.574219 261.660156 " clip-rule="nonzero"/></clipPath><clipPath id="37ab512e8a"><path d="M 292.574219 261.660156 L 86.292969 335.199219 L 12.753906 128.914062 L 219.039062 55.378906 Z M 292.574219 261.660156 " clip-rule="nonzero"/></clipPath><clipPath id="727cf17f3e"><path d="M 292.574219 261.660156 L 86.292969 335.199219 L 12.753906 128.914062 L 219.039062 55.378906 Z M 292.574219 261.660156 " clip-rule="nonzero"/></clipPath><clipPath id="0ab6dffae9"><path d="M 100 186 L 112 186 L 112 195 L 100 195 Z M 100 186 " clip-rule="nonzero"/></clipPath><clipPath id="39ba42face"><path d="M 292.574219 261.660156 L 86.292969 335.199219 L 12.753906 128.914062 L 219.039062 55.378906 Z M 292.574219 261.660156 " clip-rule="nonzero"/></clipPath><clipPath id="e44945b6b1"><path d="M 292.574219 261.660156 L 86.292969 335.199219 L 12.753906 128.914062 L 219.039062 55.378906 Z M 292.574219 261.660156 " clip-rule="nonzero"/></clipPath><clipPath id="a14b5d7389"><path d="M 292.574219 261.660156 L 86.292969 335.199219 L 12.753906 128.914062 L 219.039062 55.378906 Z M 292.574219 261.660156 " clip-rule="nonzero"/></clipPath><clipPath id="d860b0a513"><path d="M 95 168 L 105 168 L 105 179 L 95 179 Z M 95 168 " clip-rule="nonzero"/></clipPath><clipPath id="465296a680"><path d="M 292.574219 261.660156 L 86.292969 335.199219 L 12.753906 128.914062 L 219.039062 55.378906 Z M 292.574219 261.660156 " clip-rule="nonzero"/></clipPath><clipPath id="feb6649651"><path d="M 292.574219 261.660156 L 86.292969 335.199219 L 12.753906 128.914062 L 219.039062 55.378906 Z M 292.574219 261.660156 " clip-rule="nonzero"/></clipPath><clipPath id="8ee5fc86d9"><path d="M 292.574219 261.660156 L 86.292969 335.199219 L 12.753906 128.914062 L 219.039062 55.378906 Z M 292.574219 261.660156 " clip-rule="nonzero"/></clipPath><clipPath id="aee5142daa"><path d="M 77 164 L 87 164 L 87 175 L 77 175 Z M 77 164 " clip-rule="nonzero"/></clipPath><clipPath id="e1cbcf26df"><path d="M 292.574219 261.660156 L 86.292969 335.199219 L 12.753906 128.914062 L 219.039062 55.378906 Z M 292.574219 261.660156 " clip-rule="nonzero"/></clipPath><clipPath id="e68801b505"><path d="M 292.574219 261.660156 L 86.292969 335.199219 L 12.753906 128.914062 L 219.039062 55.378906 Z M 292.574219 261.660156 " clip-rule="nonzero"/></clipPath><clipPath id="c88a230c34"><path d="M 292.574219 261.660156 L 86.292969 335.199219 L 12.753906 128.914062 L 219.039062 55.378906 Z M 292.574219 261.660156 " clip-rule="nonzero"/></clipPath><clipPath id="b04f771032"><path d="M 64 179 L 76 179 L 76 188 L 64 188 Z M 64 179 " clip-rule="nonzero"/></clipPath><clipPath id="6b221af2c0"><path d="M 292.574219 261.660156 L 86.292969 335.199219 L 12.753906 128.914062 L 219.039062 55.378906 Z M 292.574219 261.660156 " clip-rule="nonzero"/></clipPath><clipPath id="172f1be9db"><path d="M 292.574219 261.660156 L 86.292969 335.199219 L 12.753906 128.914062 L 219.039062 55.378906 Z M 292.574219 261.660156 " clip-rule="nonzero"/></clipPath><clipPath id="dafc3a641a"><path d="M 292.574219 261.660156 L 86.292969 335.199219 L 12.753906 128.914062 L 219.039062 55.378906 Z M 292.574219 261.660156 " clip-rule="nonzero"/></clipPath><clipPath id="45dc2db7a0"><path d="M 70 195 L 81 195 L 81 206 L 70 206 Z M 70 195 " clip-rule="nonzero"/></clipPath><clipPath id="02d3e4f95d"><path d="M 292.574219 261.660156 L 86.292969 335.199219 L 12.753906 128.914062 L 219.039062 55.378906 Z M 292.574219 261.660156 " clip-rule="nonzero"/></clipPath><clipPath id="0bf605e1f3"><path d="M 292.574219 261.660156 L 86.292969 335.199219 L 12.753906 128.914062 L 219.039062 55.378906 Z M 292.574219 261.660156 " clip-rule="nonzero"/></clipPath><clipPath id="f957903df1"><path d="M 292.574219 261.660156 L 86.292969 335.199219 L 12.753906 128.914062 L 219.039062 55.378906 Z M 292.574219 261.660156 " clip-rule="nonzero"/></clipPath><clipPath id="d830c60986"><rect x="0" width="556" y="0" height="301"/></clipPath><clipPath id="ed64188cde"><rect x="0" width="585" y="0" height="301"/></clipPath><clipPath id="b0f553409c"><rect x="0" width="76" y="0" height="199"/></clipPath></defs><rect x="-81" width="972" fill="#ffffff" y="-80.999999" height="971.999992" fill-opacity="1"/><rect x="-81" width="972" fill="#ffffff" y="-80.999999" height="971.999992" fill-opacity="1"/><g clip-path="url(#da1fa75330)"><g clip-path="url(#2b66174494)"><g clip-path="url(#ece7378e99)"><g clip-path="url(#48d041eaad)"><path fill="#f4c435" d="M 74.105469 289.382812 C 77.878906 294.207031 85.695312 293.953125 88.871094 288.601562 C 139.980469 202.4375 198.140625 218.304688 229.136719 220.882812 C 235.734375 221.429688 242.496094 219.644531 246.460938 214.339844 C 246.640625 214.09375 246.8125 213.824219 246.980469 213.550781 L 263.257812 218.683594 L 268.898438 205.4375 L 251.035156 196.253906 C 251.027344 194.824219 250.921875 193.550781 250.710938 192.566406 C 249.457031 186.679688 242.628906 181.582031 236.15625 179.210938 C 111.523438 133.484375 60.355469 241.578125 71.027344 281.511719 C 71.648438 283.820312 72.632812 287.5 74.105469 289.382812 Z M 74.105469 289.382812 " fill-opacity="1" fill-rule="nonzero"/></g></g></g></g><g clip-path="url(#069587beb3)"><g clip-path="url(#8c3dab1dea)"><g clip-path="url(#a401cd2c76)"><g clip-path="url(#718021957b)"><path fill="#f1bc02" d="M 251.035156 196.253906 C 251.027344 194.824219 250.921875 193.550781 250.710938 192.566406 C 249.457031 186.679688 242.628906 181.582031 236.15625 179.210938 C 111.523438 133.484375 60.355469 241.578125 71.027344 281.511719 C 71.648438 283.820312 72.632812 287.5 74.101562 289.382812 C 75.425781 291.074219 77.253906 292.128906 79.199219 292.570312 C 81.953125 246.066406 138.300781 166.257812 249.203125 206.945312 " fill-opacity="1" fill-rule="nonzero"/></g></g></g></g><g clip-path="url(#2fd135a23a)"><g clip-path="url(#b4f26f24d2)"><g clip-path="url(#a57be70874)"><g clip-path="url(#29f21b04c3)"><path fill="#c8c625" d="M 246.980469 213.550781 C 253.765625 215.691406 253.765625 215.691406 259.703125 217.5625 L 263.257812 218.683594 L 268.898438 205.4375 L 251.035156 196.253906 " fill-opacity="1" fill-rule="nonzero"/></g></g></g></g><g clip-path="url(#9680407448)"><g clip-path="url(#55677a4581)"><g clip-path="url(#b3f6afc393)"><g clip-path="url(#727be36353)"><path fill="#f0b102" d="M 251.035156 196.253906 C 251.027344 194.824219 250.921875 193.550781 250.710938 192.566406 C 249.457031 186.679688 242.628906 181.582031 236.15625 179.210938 C 111.523438 133.484375 60.355469 241.578125 71.027344 281.511719 C 71.648438 283.820312 72.632812 287.5 74.101562 289.382812 C 74.335938 289.679688 74.585938 289.960938 74.847656 290.21875 C 68.808594 247.300781 120.667969 148.332031 240.871094 192.433594 C 243.894531 193.542969 247.785156 196.085938 250.359375 198.183594 " fill-opacity="1" fill-rule="nonzero"/></g></g></g></g><g clip-path="url(#85e6c8862e)"><g clip-path="url(#0c3234ab9f)"><g clip-path="url(#761a6b5fbc)"><g clip-path="url(#bad415c124)"><path fill="#2c441f" d="M 85.671875 291.699219 C 85.089844 290.113281 83.761719 288.632812 81.871094 287.746094 C 78.78125 286.292969 75.386719 286.953125 73.949219 289.15625 C 74.003906 289.230469 74.050781 289.316406 74.105469 289.382812 C 76.914062 292.976562 81.964844 293.746094 85.671875 291.699219 Z M 85.671875 291.699219 " fill-opacity="1" fill-rule="nonzero"/></g></g></g></g><g clip-path="url(#b965fa4c67)"><g clip-path="url(#4a661c2770)"><g clip-path="url(#8f495b59be)"><g clip-path="url(#ed7c4c3d7e)"><path fill="#f1e6bf" d="M 52.25 197.867188 C 51.84375 196.71875 51.492188 195.554688 51.199219 194.375 C 50.902344 193.195312 50.667969 192.003906 50.488281 190.800781 C 50.3125 189.597656 50.195312 188.386719 50.136719 187.171875 C 50.078125 185.957031 50.078125 184.742188 50.140625 183.527344 C 50.199219 182.3125 50.320312 181.101562 50.5 179.898438 C 50.679688 178.695312 50.917969 177.503906 51.214844 176.324219 C 51.511719 175.144531 51.867188 173.984375 52.277344 172.835938 C 52.6875 171.691406 53.152344 170.570312 53.675781 169.472656 C 54.195312 168.371094 54.769531 167.300781 55.394531 166.257812 C 56.019531 165.214844 56.695312 164.207031 57.421875 163.230469 C 58.148438 162.253906 58.917969 161.316406 59.738281 160.417969 C 60.554688 159.515625 61.414062 158.65625 62.316406 157.84375 C 63.21875 157.027344 64.15625 156.257812 65.132812 155.535156 C 66.113281 154.808594 67.121094 154.136719 68.167969 153.511719 C 69.210938 152.886719 70.28125 152.316406 71.382812 151.796875 C 72.480469 151.28125 73.605469 150.816406 74.75 150.40625 C 75.894531 150 77.058594 149.648438 78.238281 149.355469 C 79.417969 149.058594 80.609375 148.824219 81.8125 148.648438 C 83.015625 148.472656 84.222656 148.351562 85.4375 148.296875 C 86.652344 148.238281 87.867188 148.238281 89.082031 148.300781 C 90.296875 148.363281 91.503906 148.480469 92.707031 148.664062 C 93.910156 148.84375 95.101562 149.082031 96.28125 149.378906 C 97.460938 149.675781 98.621094 150.03125 99.765625 150.441406 C 100.910156 150.851562 102.03125 151.320312 103.132812 151.839844 C 104.230469 152.363281 105.300781 152.9375 106.34375 153.5625 C 107.386719 154.191406 108.394531 154.867188 109.371094 155.59375 C 110.347656 156.320312 111.285156 157.089844 112.183594 157.910156 C 113.085938 158.726562 113.945312 159.585938 114.757812 160.488281 C 115.574219 161.394531 116.34375 162.332031 117.066406 163.3125 C 117.792969 164.289062 118.464844 165.300781 119.089844 166.34375 C 119.714844 167.390625 120.285156 168.460938 120.804688 169.5625 C 121.324219 170.664062 121.785156 171.785156 122.195312 172.933594 C 122.601562 174.078125 122.953125 175.242188 123.25 176.421875 C 123.542969 177.601562 123.777344 178.792969 123.957031 179.996094 C 124.132812 181.203125 124.25 182.410156 124.308594 183.625 C 124.367188 184.839844 124.367188 186.054688 124.304688 187.269531 C 124.246094 188.484375 124.125 189.695312 123.945312 190.898438 C 123.765625 192.101562 123.527344 193.292969 123.230469 194.472656 C 122.933594 195.652344 122.582031 196.816406 122.167969 197.960938 C 121.757812 199.105469 121.292969 200.226562 120.773438 201.324219 C 120.25 202.425781 119.675781 203.496094 119.050781 204.539062 C 118.425781 205.582031 117.75 206.589844 117.023438 207.566406 C 116.296875 208.542969 115.527344 209.480469 114.710938 210.382812 C 113.890625 211.28125 113.03125 212.140625 112.128906 212.957031 C 111.230469 213.769531 110.289062 214.539062 109.3125 215.265625 C 108.335938 215.988281 107.324219 216.660156 106.28125 217.285156 C 105.238281 217.910156 104.164062 218.480469 103.066406 219 C 101.964844 219.519531 100.84375 219.980469 99.695312 220.390625 C 98.550781 220.796875 97.390625 221.148438 96.210938 221.441406 C 95.027344 221.738281 93.835938 221.972656 92.632812 222.148438 C 91.433594 222.328125 90.222656 222.445312 89.007812 222.5 C 87.792969 222.558594 86.578125 222.558594 85.363281 222.496094 C 84.148438 222.4375 82.941406 222.316406 81.738281 222.136719 C 80.535156 221.953125 79.34375 221.714844 78.164062 221.417969 C 76.984375 221.121094 75.824219 220.765625 74.679688 220.355469 C 73.535156 219.945312 72.414062 219.476562 71.316406 218.957031 C 70.214844 218.433594 69.144531 217.859375 68.101562 217.234375 C 67.0625 216.605469 66.050781 215.929688 65.074219 215.203125 C 64.097656 214.476562 63.160156 213.707031 62.261719 212.886719 C 61.359375 212.070312 60.503906 211.210938 59.6875 210.308594 C 58.871094 209.40625 58.101562 208.464844 57.378906 207.484375 C 56.65625 206.507812 55.980469 205.496094 55.355469 204.453125 C 54.734375 203.40625 54.160156 202.335938 53.644531 201.234375 C 53.125 200.136719 52.660156 199.011719 52.25 197.867188 Z M 52.25 197.867188 " fill-opacity="1" fill-rule="nonzero"/></g></g></g></g><g clip-path="url(#a5927fcc9a)"><g clip-path="url(#b63056809e)"><g clip-path="url(#4bfb91d58d)"><g clip-path="url(#8d03484440)"><path fill="#f2be2e" d="M 76.515625 155.367188 C 94.992188 148.78125 115.203125 157.746094 122.953125 175.457031 C 122.71875 174.613281 122.492188 173.769531 122.195312 172.933594 C 115.304688 153.609375 94.066406 143.523438 74.75 150.410156 C 55.433594 157.292969 45.363281 178.542969 52.253906 197.867188 C 52.550781 198.703125 52.910156 199.5 53.261719 200.300781 C 48.0625 181.683594 58.039062 161.953125 76.515625 155.367188 Z M 76.515625 155.367188 " fill-opacity="1" fill-rule="nonzero"/></g></g></g></g><g clip-path="url(#41b3120165)"><g clip-path="url(#f45d1690cc)"><g clip-path="url(#37ab512e8a)"><g clip-path="url(#727cf17f3e)"><path fill="#bf8f33" d="M 91.824219 199.402344 C 93.605469 198.765625 95.5625 199.695312 96.199219 201.476562 L 97.578125 205.347656 C 98.214844 207.125 97.285156 209.085938 95.503906 209.71875 C 93.726562 210.355469 91.765625 209.425781 91.132812 207.644531 L 89.75 203.773438 C 89.117188 201.992188 90.046875 200.035156 91.824219 199.402344 Z M 91.824219 199.402344 " fill-opacity="1" fill-rule="nonzero"/></g></g></g></g><g clip-path="url(#0ab6dffae9)"><g clip-path="url(#39ba42face)"><g clip-path="url(#e44945b6b1)"><g clip-path="url(#a14b5d7389)"><path fill="#bf8f33" d="M 102.726562 187.148438 C 103.273438 186.953125 103.875 186.894531 104.488281 187.003906 L 108.53125 187.746094 C 110.390625 188.085938 111.621094 189.871094 111.28125 191.726562 C 110.9375 193.589844 109.160156 194.816406 107.296875 194.476562 L 103.253906 193.738281 C 101.394531 193.394531 100.164062 191.613281 100.507812 189.753906 C 100.734375 188.507812 101.613281 187.542969 102.726562 187.148438 Z M 102.726562 187.148438 " fill-opacity="1" fill-rule="nonzero"/></g></g></g></g><g clip-path="url(#d860b0a513)"><g clip-path="url(#465296a680)"><g clip-path="url(#feb6649651)"><g clip-path="url(#8ee5fc86d9)"><path fill="#bf8f33" d="M 100.21875 168.445312 C 101.335938 168.046875 102.621094 168.238281 103.585938 169.058594 C 105.027344 170.285156 105.203125 172.441406 103.980469 173.882812 L 101.320312 177.011719 C 100.089844 178.457031 97.933594 178.628906 96.496094 177.40625 C 95.054688 176.183594 94.878906 174.023438 96.105469 172.585938 L 98.765625 169.453125 C 99.167969 168.976562 99.671875 168.640625 100.21875 168.445312 Z M 100.21875 168.445312 " fill-opacity="1" fill-rule="nonzero"/></g></g></g></g><g clip-path="url(#aee5142daa)"><g clip-path="url(#e1cbcf26df)"><g clip-path="url(#e68801b505)"><g clip-path="url(#c88a230c34)"><path fill="#bf8f33" d="M 80.121094 164.382812 C 81.898438 163.75 83.859375 164.679688 84.492188 166.457031 L 85.875 170.332031 C 86.507812 172.109375 85.578125 174.070312 83.800781 174.703125 C 82.019531 175.335938 80.0625 174.410156 79.425781 172.628906 L 78.046875 168.757812 C 77.414062 166.976562 78.339844 165.019531 80.121094 164.382812 Z M 80.121094 164.382812 " fill-opacity="1" fill-rule="nonzero"/></g></g></g></g><g clip-path="url(#b04f771032)"><g clip-path="url(#6b221af2c0)"><g clip-path="url(#172f1be9db)"><g clip-path="url(#dafc3a641a)"><path fill="#bf8f33" d="M 66.566406 179.769531 C 67.113281 179.574219 67.714844 179.515625 68.328125 179.625 L 72.371094 180.367188 C 74.230469 180.707031 75.460938 182.492188 75.117188 184.351562 C 74.777344 186.210938 72.996094 187.4375 71.136719 187.097656 L 67.09375 186.359375 C 65.234375 186.015625 64.003906 184.234375 64.34375 182.375 C 64.574219 181.128906 65.453125 180.164062 66.566406 179.769531 Z M 66.566406 179.769531 " fill-opacity="1" fill-rule="nonzero"/></g></g></g></g><g clip-path="url(#45dc2db7a0)"><g clip-path="url(#02d3e4f95d)"><g clip-path="url(#0bf605e1f3)"><g clip-path="url(#f957903df1)"><path fill="#bf8f33" d="M 75.765625 196.085938 C 76.878906 195.6875 78.167969 195.878906 79.132812 196.699219 C 80.570312 197.921875 80.746094 200.082031 79.523438 201.523438 L 76.859375 204.652344 C 75.636719 206.09375 73.476562 206.265625 72.039062 205.042969 C 70.597656 203.820312 70.421875 201.660156 71.648438 200.21875 L 74.308594 197.089844 C 74.710938 196.617188 75.214844 196.28125 75.765625 196.085938 Z M 75.765625 196.085938 " fill-opacity="1" fill-rule="nonzero"/></g></g></g></g><g transform="matrix(1, 0, 0, 1, 152, 207)"><g clip-path="url(#d830c60986)"><g fill="#000000" fill-opacity="1"><g transform="translate(0.876187, 147.272551)"><g><path d="M 28.9375 0 C 26.53125 0.695312 24.179688 1.046875 21.890625 1.046875 C 19.390625 1.046875 17.085938 0.695312 14.984375 0 L 14.984375 -108.234375 L 48.71875 -108.234375 C 61.507812 -108.234375 71.273438 -105.382812 78.015625 -99.6875 C 84.765625 -93.988281 88.140625 -86.046875 88.140625 -75.859375 C 88.140625 -64.765625 84.46875 -56.117188 77.125 -49.921875 C 69.78125 -43.722656 59.863281 -40.625 47.375 -40.625 L 28.9375 -40.625 Z M 48.71875 -95.34375 L 28.9375 -95.34375 L 28.9375 -53.359375 L 46.015625 -53.359375 C 55.109375 -53.359375 62.003906 -55.207031 66.703125 -58.90625 C 71.398438 -62.601562 73.75 -68.101562 73.75 -75.40625 C 73.75 -88.695312 65.40625 -95.34375 48.71875 -95.34375 Z M 48.71875 -95.34375 "/></g></g></g><g fill="#000000" fill-opacity="1"><g transform="translate(98.016092, 147.272551)"><g><path d="M -0.15625 -10.796875 C 1.945312 -10.796875 4.195312 -11.441406 6.59375 -12.734375 C 8.988281 -14.035156 11.238281 -16.035156 13.34375 -18.734375 C 15.84375 -22.128906 17.664062 -26.023438 18.8125 -30.421875 C 19.957031 -34.828125 20.679688 -39.273438 20.984375 -43.765625 L 20.984375 -70.75 C 21.890625 -71.050781 22.941406 -71.300781 24.140625 -71.5 C 25.335938 -71.707031 26.582031 -71.8125 27.875 -71.8125 C 30.175781 -71.8125 32.425781 -71.457031 34.625 -70.75 L 34.625 -27.578125 C 34.625 -22.285156 35.445312 -18.164062 37.09375 -15.21875 C 38.75 -12.269531 41.523438 -10.796875 45.421875 -10.796875 C 47.117188 -10.796875 48.265625 -10.09375 48.859375 -8.6875 C 49.460938 -7.289062 49.765625 -5.796875 49.765625 -4.203125 C 49.765625 -2.597656 49.335938 -1.148438 48.484375 0.140625 C 47.640625 1.441406 46.269531 2.09375 44.375 2.09375 C 33.976562 2.09375 27.234375 -2.800781 24.140625 -12.59375 C 22.734375 -10.289062 21.234375 -8.34375 19.640625 -6.75 C 16.941406 -4.050781 13.816406 -1.898438 10.265625 -0.296875 C 6.722656 1.296875 2.898438 2.09375 -1.203125 2.09375 C -2.597656 2.09375 -3.671875 1.414062 -4.421875 0.0625 C -5.171875 -1.28125 -5.546875 -2.75 -5.546875 -4.34375 C -5.546875 -6.039062 -5.117188 -7.539062 -4.265625 -8.84375 C -3.421875 -10.144531 -2.050781 -10.796875 -0.15625 -10.796875 Z M 28.1875 -96.09375 C 25.382812 -96.09375 22.984375 -97.09375 20.984375 -99.09375 C 18.992188 -101.09375 18 -103.488281 18 -106.28125 C 18 -109.175781 18.972656 -111.597656 20.921875 -113.546875 C 22.867188 -115.503906 25.289062 -116.484375 28.1875 -116.484375 C 31.082031 -116.484375 33.503906 -115.503906 35.453125 -113.546875 C 37.398438 -111.597656 38.375 -109.175781 38.375 -106.28125 C 38.375 -103.488281 37.398438 -101.09375 35.453125 -99.09375 C 33.503906 -97.09375 31.082031 -96.09375 28.1875 -96.09375 Z M 28.1875 -96.09375 "/></g></g></g><g fill="#000000" fill-opacity="1"><g transform="translate(143.5879, 147.272551)"><g><path d="M -1.203125 2.09375 C -2.492188 2.09375 -3.539062 1.492188 -4.34375 0.296875 C -5.144531 -0.898438 -5.546875 -2.445312 -5.546875 -4.34375 C -5.546875 -8.644531 -3.75 -10.796875 -0.15625 -10.796875 C 3.039062 -10.796875 6.585938 -12.769531 10.484375 -16.71875 C 14.390625 -20.664062 18.941406 -27.035156 24.140625 -35.828125 L 40.171875 -62.953125 C 39.972656 -64.359375 39.875 -65.859375 39.875 -67.453125 C 39.875 -72.453125 40.796875 -76.148438 42.640625 -78.546875 C 44.492188 -80.953125 46.019531 -82.398438 47.21875 -82.890625 C 48.914062 -83.296875 50.738281 -83.273438 52.6875 -82.828125 C 54.632812 -82.378906 56.40625 -81.65625 58 -80.65625 C 59.601562 -79.65625 60.707031 -78.453125 61.3125 -77.046875 C 60.914062 -75.253906 60.164062 -73.109375 59.0625 -70.609375 C 57.957031 -68.109375 56.207031 -64.757812 53.8125 -60.5625 C 54.507812 -59.457031 55.40625 -58.351562 56.5 -57.25 C 57.601562 -56.15625 58.957031 -54.960938 60.5625 -53.671875 L 71.953125 -44.375 C 76.046875 -41.070312 79.117188 -37.644531 81.171875 -34.09375 C 83.222656 -30.550781 84.25 -26.582031 84.25 -22.1875 C 84.25 -16.882812 82.75 -12.1875 79.75 -8.09375 C 80.25 -7 80.5 -5.703125 80.5 -4.203125 C 80.5 -2.296875 80.023438 -0.769531 79.078125 0.375 C 78.128906 1.519531 76.804688 2.09375 75.109375 2.09375 C 73.503906 2.09375 71.953125 1.992188 70.453125 1.796875 C 68.953125 1.597656 67.304688 1.347656 65.515625 1.046875 C 62.816406 1.742188 59.96875 2.09375 56.96875 2.09375 C 53.46875 2.09375 49.96875 1.566406 46.46875 0.515625 C 42.96875 -0.523438 39.320312 -2.195312 35.53125 -4.5 C 35.332031 -9.789062 37.332031 -13.6875 41.53125 -16.1875 C 47.019531 -12.59375 52.210938 -10.796875 57.109375 -10.796875 C 61.304688 -10.796875 64.65625 -11.914062 67.15625 -14.15625 C 69.65625 -16.40625 70.90625 -19.28125 70.90625 -22.78125 C 70.90625 -27.175781 68.503906 -31.273438 63.703125 -35.078125 L 52.3125 -44.078125 C 50.3125 -45.671875 48.515625 -47.316406 46.921875 -49.015625 L 31.9375 -23.6875 C 26.4375 -14.394531 21.160156 -7.773438 16.109375 -3.828125 C 11.066406 0.117188 5.296875 2.09375 -1.203125 2.09375 Z M -1.203125 2.09375 "/></g></g></g><g fill="#000000" fill-opacity="1"><g transform="translate(234.581609, 147.272551)"><g><path d="M -0.15625 -10.796875 C 3.25 -10.796875 6.570312 -12.46875 9.8125 -15.8125 C 13.0625 -19.164062 15.785156 -23.6875 17.984375 -29.375 C 17.890625 -30.78125 17.84375 -32.179688 17.84375 -33.578125 C 17.84375 -41.171875 19.335938 -47.914062 22.328125 -53.8125 C 25.328125 -59.707031 29.398438 -64.351562 34.546875 -67.75 C 39.703125 -71.15625 45.578125 -72.859375 52.171875 -72.859375 C 55.660156 -72.859375 59.101562 -72.179688 62.5 -70.828125 C 65.90625 -69.484375 68.757812 -67.660156 71.0625 -65.359375 L 71.0625 -71.5 C 71.957031 -71.800781 73.003906 -72.050781 74.203125 -72.25 C 75.398438 -72.445312 76.648438 -72.546875 77.953125 -72.546875 C 80.347656 -72.546875 82.597656 -72.195312 84.703125 -71.5 L 84.703125 -27.578125 C 84.703125 -22.285156 85.523438 -18.164062 87.171875 -15.21875 C 88.816406 -12.269531 91.585938 -10.796875 95.484375 -10.796875 C 97.179688 -10.796875 98.332031 -10.09375 98.9375 -8.6875 C 99.539062 -7.289062 99.84375 -5.796875 99.84375 -4.203125 C 99.84375 -2.597656 99.414062 -1.148438 98.5625 0.140625 C 97.71875 1.441406 96.34375 2.09375 94.4375 2.09375 C 84.644531 2.09375 78.097656 -2.300781 74.796875 -11.09375 C 71.898438 -7 68.273438 -3.773438 63.921875 -1.421875 C 59.578125 0.921875 54.757812 2.09375 49.46875 2.09375 C 43.675781 2.09375 38.554688 0.820312 34.109375 -1.71875 C 29.660156 -4.269531 26.035156 -7.796875 23.234375 -12.296875 C 17.035156 -2.703125 8.890625 2.09375 -1.203125 2.09375 C -2.492188 2.09375 -3.539062 1.492188 -4.34375 0.296875 C -5.144531 -0.898438 -5.546875 -2.445312 -5.546875 -4.34375 C -5.546875 -8.644531 -3.75 -10.796875 -0.15625 -10.796875 Z M 31.78125 -33.578125 C 31.78125 -26.484375 33.40625 -20.910156 36.65625 -16.859375 C 39.90625 -12.816406 44.375 -10.796875 50.0625 -10.796875 C 56.363281 -10.796875 61.4375 -13.117188 65.28125 -17.765625 C 69.132812 -22.410156 71.0625 -28.53125 71.0625 -36.125 L 71.0625 -50.96875 C 69.0625 -53.664062 66.507812 -55.835938 63.40625 -57.484375 C 60.3125 -59.140625 57.113281 -59.96875 53.8125 -59.96875 C 49.519531 -59.96875 45.722656 -58.816406 42.421875 -56.515625 C 39.117188 -54.210938 36.519531 -51.085938 34.625 -47.140625 C 32.726562 -43.191406 31.78125 -38.671875 31.78125 -33.578125 Z M 31.78125 -33.578125 "/></g></g></g><g fill="#000000" fill-opacity="1"><g transform="translate(330.222429, 147.272551)"><g><path d="M -1.203125 2.09375 C -2.492188 2.09375 -3.539062 1.492188 -4.34375 0.296875 C -5.144531 -0.898438 -5.546875 -2.445312 -5.546875 -4.34375 C -5.546875 -8.644531 -3.75 -10.796875 -0.15625 -10.796875 C 3.039062 -10.796875 5.914062 -12.414062 8.46875 -15.65625 C 11.019531 -18.90625 13.242188 -24.332031 15.140625 -31.9375 L 19.640625 -49.46875 C 23.835938 -65.0625 31.832031 -72.859375 43.625 -72.859375 C 48.125 -72.859375 51.921875 -71.53125 55.015625 -68.875 C 58.109375 -66.226562 60.257812 -62.65625 61.46875 -58.15625 C 64.257812 -62.851562 67.851562 -66.476562 72.25 -69.03125 C 76.644531 -71.582031 81.546875 -72.859375 86.953125 -72.859375 C 94.742188 -72.859375 100.757812 -70.304688 105 -65.203125 C 109.25 -60.109375 111.375 -52.960938 111.375 -43.765625 L 111.375 -26.234375 C 111.375 -20.429688 112.148438 -16.40625 113.703125 -14.15625 C 115.253906 -11.914062 117.53125 -10.796875 120.53125 -10.796875 C 121.925781 -10.796875 123 -10.195312 123.75 -9 C 124.5 -7.800781 124.875 -6.203125 124.875 -4.203125 C 124.875 -2.597656 124.445312 -1.148438 123.59375 0.140625 C 122.75 1.441406 121.375 2.09375 119.46875 2.09375 C 113.375 2.09375 108.226562 0.0195312 104.03125 -4.125 C 99.832031 -8.269531 97.734375 -15.085938 97.734375 -24.578125 L 97.734375 -43.765625 C 97.734375 -54.566406 93.488281 -59.96875 85 -59.96875 C 80.601562 -59.96875 76.726562 -58.21875 73.375 -54.71875 C 70.03125 -51.21875 67.429688 -46.367188 65.578125 -40.171875 C 63.734375 -33.972656 62.8125 -26.78125 62.8125 -18.59375 L 62.8125 0 C 61.8125 0.300781 60.710938 0.550781 59.515625 0.75 C 58.316406 0.945312 57.164062 1.046875 56.0625 1.046875 C 53.664062 1.046875 51.414062 0.695312 49.3125 0 L 49.3125 -47.8125 C 49.3125 -55.914062 47.015625 -59.96875 42.421875 -59.96875 C 40.328125 -59.96875 38.53125 -59.015625 37.03125 -57.109375 C 35.53125 -55.210938 34.226562 -52.164062 33.125 -47.96875 L 27.578125 -26.390625 C 24.984375 -16.492188 21.382812 -9.269531 16.78125 -4.71875 C 12.1875 -0.175781 6.191406 2.09375 -1.203125 2.09375 Z M -1.203125 2.09375 "/></g></g></g><g fill="#000000" fill-opacity="1"><g transform="translate(450.897754, 147.272551)"><g><path d="M -0.15625 -10.796875 C 3.25 -10.796875 6.570312 -12.46875 9.8125 -15.8125 C 13.0625 -19.164062 15.785156 -23.6875 17.984375 -29.375 C 17.890625 -30.78125 17.84375 -32.179688 17.84375 -33.578125 C 17.84375 -41.171875 19.335938 -47.914062 22.328125 -53.8125 C 25.328125 -59.707031 29.398438 -64.351562 34.546875 -67.75 C 39.703125 -71.15625 45.578125 -72.859375 52.171875 -72.859375 C 55.660156 -72.859375 59.101562 -72.179688 62.5 -70.828125 C 65.90625 -69.484375 68.757812 -67.660156 71.0625 -65.359375 L 71.0625 -71.5 C 71.957031 -71.800781 73.003906 -72.050781 74.203125 -72.25 C 75.398438 -72.445312 76.648438 -72.546875 77.953125 -72.546875 C 80.347656 -72.546875 82.597656 -72.195312 84.703125 -71.5 L 84.703125 41.078125 C 84.703125 53.265625 82.578125 62.304688 78.328125 68.203125 C 74.078125 74.097656 67.253906 77.046875 57.859375 77.046875 C 50.867188 77.046875 45.125 74.625 40.625 69.78125 C 36.125 64.9375 33.875 58.566406 33.875 50.671875 C 33.875 32.273438 46.519531 15.082031 71.8125 -0.90625 L 71.8125 -7.5 C 69.007812 -4.5 65.707031 -2.148438 61.90625 -0.453125 C 58.113281 1.242188 53.96875 2.09375 49.46875 2.09375 C 43.675781 2.09375 38.554688 0.820312 34.109375 -1.71875 C 29.660156 -4.269531 26.035156 -7.796875 23.234375 -12.296875 C 17.035156 -2.703125 8.890625 2.09375 -1.203125 2.09375 C -2.492188 2.09375 -3.539062 1.492188 -4.34375 0.296875 C -5.144531 -0.898438 -5.546875 -2.445312 -5.546875 -4.34375 C -5.546875 -8.644531 -3.75 -10.796875 -0.15625 -10.796875 Z M 31.78125 -33.578125 C 31.78125 -26.484375 33.40625 -20.910156 36.65625 -16.859375 C 39.90625 -12.816406 44.375 -10.796875 50.0625 -10.796875 C 56.363281 -10.796875 61.4375 -13.117188 65.28125 -17.765625 C 69.132812 -22.410156 71.0625 -28.53125 71.0625 -36.125 L 71.0625 -50.96875 C 69.0625 -53.664062 66.507812 -55.835938 63.40625 -57.484375 C 60.3125 -59.140625 57.113281 -59.96875 53.8125 -59.96875 C 49.519531 -59.96875 45.722656 -58.816406 42.421875 -56.515625 C 39.117188 -54.210938 36.519531 -51.085938 34.625 -47.140625 C 32.726562 -43.191406 31.78125 -38.671875 31.78125 -33.578125 Z M 47.078125 50.0625 C 47.078125 54.5625 48.070312 58.082031 50.0625 60.625 C 52.0625 63.175781 54.8125 64.453125 58.3125 64.453125 C 63.007812 64.453125 66.429688 62.476562 68.578125 58.53125 C 70.734375 54.582031 71.8125 48.765625 71.8125 41.078125 L 71.8125 14.546875 C 55.320312 26.140625 47.078125 37.976562 47.078125 50.0625 Z M 47.078125 50.0625 "/></g></g></g></g></g><g transform="matrix(1, 0, 0, 1, 40, 310)"><g clip-path="url(#ed64188cde)"><g fill="#000000" fill-opacity="1"><g transform="translate(0.500001, 147.046042)"><g><path d="M 57.859375 2.09375 C 47.867188 2.09375 39.148438 -0.226562 31.703125 -4.875 C 24.253906 -9.519531 18.484375 -16.039062 14.390625 -24.4375 C 10.296875 -32.832031 8.25 -42.722656 8.25 -54.109375 C 8.25 -65.609375 10.320312 -75.554688 14.46875 -83.953125 C 18.613281 -92.347656 24.507812 -98.84375 32.15625 -103.4375 C 39.800781 -108.03125 48.820312 -110.328125 59.21875 -110.328125 C 66.3125 -110.328125 72.929688 -109.253906 79.078125 -107.109375 C 85.222656 -104.960938 90.242188 -101.890625 94.140625 -97.890625 C 93.242188 -93.890625 90.742188 -90.289062 86.640625 -87.09375 C 78.742188 -93.6875 69.648438 -96.984375 59.359375 -96.984375 C 47.671875 -96.984375 38.601562 -93.257812 32.15625 -85.8125 C 25.707031 -78.375 22.484375 -67.957031 22.484375 -54.5625 C 22.484375 -45.769531 23.90625 -38.125 26.75 -31.625 C 29.601562 -25.132812 33.648438 -20.113281 38.890625 -16.5625 C 44.140625 -13.019531 50.363281 -11.25 57.5625 -11.25 C 63.757812 -11.25 69.179688 -12.546875 73.828125 -15.140625 C 78.472656 -17.734375 82.09375 -21.378906 84.6875 -26.078125 C 87.289062 -30.773438 88.59375 -36.273438 88.59375 -42.578125 C 88.59375 -43.867188 88.539062 -45.015625 88.4375 -46.015625 L 53.515625 -46.015625 C 53.015625 -46.921875 52.664062 -48.195312 52.46875 -49.84375 C 52.269531 -51.488281 52.269531 -53.160156 52.46875 -54.859375 C 52.664062 -56.554688 53.015625 -57.90625 53.515625 -58.90625 L 100.890625 -58.90625 C 101.285156 -58.113281 101.632812 -56.140625 101.9375 -52.984375 C 102.238281 -49.835938 102.390625 -46.816406 102.390625 -43.921875 C 102.390625 -34.628906 100.539062 -26.535156 96.84375 -19.640625 C 93.144531 -12.742188 87.972656 -7.394531 81.328125 -3.59375 C 74.679688 0.195312 66.859375 2.09375 57.859375 2.09375 Z M 57.859375 2.09375 "/></g></g></g><g fill="#000000" fill-opacity="1"><g transform="translate(111.88108, 147.046042)"><g><path d="M -0.15625 -10.796875 C 3.144531 -10.796875 6.367188 -12.367188 9.515625 -15.515625 C 12.660156 -18.660156 15.332031 -22.882812 17.53125 -28.1875 C 17.132812 -30.582031 16.9375 -33.03125 16.9375 -35.53125 C 16.9375 -42.726562 18.484375 -49.125 21.578125 -54.71875 C 24.679688 -60.3125 28.90625 -64.734375 34.25 -67.984375 C 39.601562 -71.234375 45.625 -72.859375 52.3125 -72.859375 C 59.007812 -72.859375 65.003906 -71.234375 70.296875 -67.984375 C 75.597656 -64.734375 79.769531 -60.3125 82.8125 -54.71875 C 85.863281 -49.125 87.390625 -42.726562 87.390625 -35.53125 C 87.390625 -28.332031 85.863281 -21.882812 82.8125 -16.1875 C 79.769531 -10.488281 75.625 -6.015625 70.375 -2.765625 C 65.132812 0.472656 59.113281 2.09375 52.3125 2.09375 C 46.21875 2.09375 40.695312 0.769531 35.75 -1.875 C 30.800781 -4.519531 26.726562 -8.140625 23.53125 -12.734375 C 17.332031 -2.847656 9.085938 2.09375 -1.203125 2.09375 C -2.492188 2.09375 -3.539062 1.492188 -4.34375 0.296875 C -5.144531 -0.898438 -5.546875 -2.445312 -5.546875 -4.34375 C -5.546875 -8.644531 -3.75 -10.796875 -0.15625 -10.796875 Z M 52.171875 -10.796875 C 58.566406 -10.796875 63.6875 -13.039062 67.53125 -17.53125 C 71.375 -22.03125 73.296875 -28.03125 73.296875 -35.53125 C 73.296875 -39.226562 72.75 -42.625 71.65625 -45.71875 C 65.65625 -45.914062 60.234375 -47.113281 55.390625 -49.3125 C 50.546875 -51.507812 46.722656 -54.507812 43.921875 -58.3125 C 39.921875 -56.613281 36.769531 -53.738281 34.46875 -49.6875 C 32.175781 -45.644531 31.03125 -40.828125 31.03125 -35.234375 C 31.03125 -27.929688 32.953125 -22.03125 36.796875 -17.53125 C 40.648438 -13.039062 45.773438 -10.796875 52.171875 -10.796875 Z M 52.171875 -10.796875 "/></g></g></g><g fill="#000000" fill-opacity="1"><g transform="translate(206.47254, 147.046042)"><g><path d="M -1.203125 2.09375 C -2.492188 2.09375 -3.539062 1.492188 -4.34375 0.296875 C -5.144531 -0.898438 -5.546875 -2.445312 -5.546875 -4.34375 C -5.546875 -8.644531 -3.75 -10.796875 -0.15625 -10.796875 C 4.25 -10.796875 8.175781 -12.617188 11.625 -16.265625 C 15.070312 -19.910156 17.816406 -24.878906 19.859375 -31.171875 C 21.910156 -37.472656 22.9375 -44.472656 22.9375 -52.171875 C 22.9375 -53.960938 22.835938 -55.609375 22.640625 -57.109375 C 22.441406 -58.609375 22.191406 -59.859375 21.890625 -60.859375 C 20.984375 -61.765625 20.003906 -63.210938 18.953125 -65.203125 C 17.910156 -67.203125 17.015625 -69.328125 16.265625 -71.578125 C 15.515625 -73.828125 15.140625 -75.648438 15.140625 -77.046875 C 16.335938 -78.953125 18.257812 -80.425781 20.90625 -81.46875 C 23.5625 -82.519531 26.488281 -82.796875 29.6875 -82.296875 C 31.582031 -78.796875 33.128906 -74.398438 34.328125 -69.109375 C 37.328125 -69.203125 41.375 -69.851562 46.46875 -71.0625 C 49.664062 -71.757812 52.238281 -72.234375 54.1875 -72.484375 C 56.132812 -72.734375 57.8125 -72.859375 59.21875 -72.859375 C 64.613281 -72.859375 68.859375 -70.832031 71.953125 -66.78125 C 75.054688 -62.738281 76.609375 -57.269531 76.609375 -50.375 L 76.609375 -26.234375 C 76.609375 -20.429688 77.378906 -16.40625 78.921875 -14.15625 C 80.472656 -11.914062 82.75 -10.796875 85.75 -10.796875 C 87.144531 -10.796875 88.21875 -10.195312 88.96875 -9 C 89.71875 -7.800781 90.09375 -6.203125 90.09375 -4.203125 C 90.09375 -2.597656 89.664062 -1.148438 88.8125 0.140625 C 87.96875 1.441406 86.597656 2.09375 84.703125 2.09375 C 78.597656 2.09375 73.445312 0.0195312 69.25 -4.125 C 65.050781 -8.269531 62.953125 -15.085938 62.953125 -24.578125 L 62.953125 -47.8125 C 62.953125 -52.3125 62.453125 -55.460938 61.453125 -57.265625 C 60.460938 -59.066406 58.664062 -59.96875 56.0625 -59.96875 C 55.164062 -59.96875 54.164062 -59.863281 53.0625 -59.65625 C 51.96875 -59.457031 50.019531 -59.0625 47.21875 -58.46875 C 42.320312 -57.46875 38.625 -56.867188 36.125 -56.671875 C 36.226562 -55.066406 36.28125 -53.46875 36.28125 -51.875 C 36.28125 -41.070312 34.726562 -31.625 31.625 -23.53125 C 28.53125 -15.4375 24.160156 -9.140625 18.515625 -4.640625 C 12.867188 -0.148438 6.296875 2.09375 -1.203125 2.09375 Z M -1.203125 2.09375 "/></g></g></g><g fill="#000000" fill-opacity="1"><g transform="translate(292.369388, 147.046042)"><g><path d="M -1.203125 2.09375 C -2.492188 2.09375 -3.539062 1.492188 -4.34375 0.296875 C -5.144531 -0.898438 -5.546875 -2.445312 -5.546875 -4.34375 C -5.546875 -8.644531 -3.75 -10.796875 -0.15625 -10.796875 C 2.75 -10.796875 5.695312 -11.269531 8.6875 -12.21875 C 11.6875 -13.164062 15.1875 -14.789062 19.1875 -17.09375 C 15.289062 -23.882812 13.34375 -31.878906 13.34375 -41.078125 C 13.34375 -47.273438 14.488281 -52.742188 16.78125 -57.484375 C 19.082031 -62.234375 22.28125 -65.984375 26.375 -68.734375 C 30.476562 -71.484375 35.128906 -72.859375 40.328125 -72.859375 C 44.722656 -72.859375 48.617188 -71.832031 52.015625 -69.78125 C 55.410156 -67.726562 58.054688 -64.90625 59.953125 -61.3125 C 61.859375 -57.71875 62.8125 -53.570312 62.8125 -48.875 C 62.8125 -42.476562 60.9375 -36.628906 57.1875 -31.328125 C 53.4375 -26.035156 47.113281 -20.289062 38.21875 -14.09375 C 41.414062 -11.789062 45.71875 -10.640625 51.125 -10.640625 C 52.519531 -10.640625 53.613281 -10.039062 54.40625 -8.84375 C 55.207031 -7.644531 55.609375 -6.046875 55.609375 -4.046875 C 55.609375 -2.148438 55.160156 -0.65625 54.265625 0.4375 C 53.367188 1.539062 52.070312 2.09375 50.375 2.09375 C 45.570312 2.09375 41.070312 1.296875 36.875 -0.296875 C 32.675781 -1.898438 29.179688 -4.097656 26.390625 -6.890625 C 16.796875 -0.898438 7.597656 2.09375 -1.203125 2.09375 Z M 26.390625 -42.28125 C 26.390625 -34.382812 27.785156 -28.085938 30.578125 -23.390625 C 37.078125 -27.878906 41.898438 -32.269531 45.046875 -36.5625 C 48.191406 -40.863281 49.765625 -44.96875 49.765625 -48.875 C 49.765625 -52.46875 48.890625 -55.285156 47.140625 -57.328125 C 45.390625 -59.378906 42.96875 -60.40625 39.875 -60.40625 C 35.976562 -60.40625 32.753906 -58.65625 30.203125 -55.15625 C 27.660156 -51.664062 26.390625 -47.375 26.390625 -42.28125 Z M 26.390625 -42.28125 "/></g></g></g><g fill="#000000" fill-opacity="1"><g transform="translate(358.628383, 147.046042)"><g><path d="M -1.203125 2.09375 C -2.492188 2.09375 -3.539062 1.492188 -4.34375 0.296875 C -5.144531 -0.898438 -5.546875 -2.445312 -5.546875 -4.34375 C -5.546875 -8.644531 -3.75 -10.796875 -0.15625 -10.796875 C 3.039062 -10.796875 5.914062 -12.414062 8.46875 -15.65625 C 11.019531 -18.90625 13.242188 -24.332031 15.140625 -31.9375 L 19.640625 -49.46875 C 23.835938 -65.0625 31.832031 -72.859375 43.625 -72.859375 C 48.125 -72.859375 51.921875 -71.53125 55.015625 -68.875 C 58.109375 -66.226562 60.257812 -62.65625 61.46875 -58.15625 C 64.257812 -62.851562 67.851562 -66.476562 72.25 -69.03125 C 76.644531 -71.582031 81.546875 -72.859375 86.953125 -72.859375 C 94.742188 -72.859375 100.757812 -70.304688 105 -65.203125 C 109.25 -60.109375 111.375 -52.960938 111.375 -43.765625 L 111.375 -26.234375 C 111.375 -20.429688 112.148438 -16.40625 113.703125 -14.15625 C 115.253906 -11.914062 117.53125 -10.796875 120.53125 -10.796875 C 121.925781 -10.796875 123 -10.195312 123.75 -9 C 124.5 -7.800781 124.875 -6.203125 124.875 -4.203125 C 124.875 -2.597656 124.445312 -1.148438 123.59375 0.140625 C 122.75 1.441406 121.375 2.09375 119.46875 2.09375 C 113.375 2.09375 108.226562 0.0195312 104.03125 -4.125 C 99.832031 -8.269531 97.734375 -15.085938 97.734375 -24.578125 L 97.734375 -43.765625 C 97.734375 -54.566406 93.488281 -59.96875 85 -59.96875 C 80.601562 -59.96875 76.726562 -58.21875 73.375 -54.71875 C 70.03125 -51.21875 67.429688 -46.367188 65.578125 -40.171875 C 63.734375 -33.972656 62.8125 -26.78125 62.8125 -18.59375 L 62.8125 0 C 61.8125 0.300781 60.710938 0.550781 59.515625 0.75 C 58.316406 0.945312 57.164062 1.046875 56.0625 1.046875 C 53.664062 1.046875 51.414062 0.695312 49.3125 0 L 49.3125 -47.8125 C 49.3125 -55.914062 47.015625 -59.96875 42.421875 -59.96875 C 40.328125 -59.96875 38.53125 -59.015625 37.03125 -57.109375 C 35.53125 -55.210938 34.226562 -52.164062 33.125 -47.96875 L 27.578125 -26.390625 C 24.984375 -16.492188 21.382812 -9.269531 16.78125 -4.71875 C 12.1875 -0.175781 6.191406 2.09375 -1.203125 2.09375 Z M -1.203125 2.09375 "/></g></g></g><g fill="#000000" fill-opacity="1"><g transform="translate(479.303681, 147.046042)"><g><path d="M -0.15625 -10.796875 C 3.25 -10.796875 6.570312 -12.46875 9.8125 -15.8125 C 13.0625 -19.164062 15.785156 -23.6875 17.984375 -29.375 C 17.890625 -30.78125 17.84375 -32.179688 17.84375 -33.578125 C 17.84375 -41.171875 19.335938 -47.914062 22.328125 -53.8125 C 25.328125 -59.707031 29.398438 -64.351562 34.546875 -67.75 C 39.703125 -71.15625 45.578125 -72.859375 52.171875 -72.859375 C 55.660156 -72.859375 59.101562 -72.179688 62.5 -70.828125 C 65.90625 -69.484375 68.757812 -67.660156 71.0625 -65.359375 L 71.0625 -71.5 C 71.957031 -71.800781 73.003906 -72.050781 74.203125 -72.25 C 75.398438 -72.445312 76.648438 -72.546875 77.953125 -72.546875 C 80.347656 -72.546875 82.597656 -72.195312 84.703125 -71.5 L 84.703125 41.078125 C 84.703125 53.265625 82.578125 62.304688 78.328125 68.203125 C 74.078125 74.097656 67.253906 77.046875 57.859375 77.046875 C 50.867188 77.046875 45.125 74.625 40.625 69.78125 C 36.125 64.9375 33.875 58.566406 33.875 50.671875 C 33.875 32.273438 46.519531 15.082031 71.8125 -0.90625 L 71.8125 -7.5 C 69.007812 -4.5 65.707031 -2.148438 61.90625 -0.453125 C 58.113281 1.242188 53.96875 2.09375 49.46875 2.09375 C 43.675781 2.09375 38.554688 0.820312 34.109375 -1.71875 C 29.660156 -4.269531 26.035156 -7.796875 23.234375 -12.296875 C 17.035156 -2.703125 8.890625 2.09375 -1.203125 2.09375 C -2.492188 2.09375 -3.539062 1.492188 -4.34375 0.296875 C -5.144531 -0.898438 -5.546875 -2.445312 -5.546875 -4.34375 C -5.546875 -8.644531 -3.75 -10.796875 -0.15625 -10.796875 Z M 31.78125 -33.578125 C 31.78125 -26.484375 33.40625 -20.910156 36.65625 -16.859375 C 39.90625 -12.816406 44.375 -10.796875 50.0625 -10.796875 C 56.363281 -10.796875 61.4375 -13.117188 65.28125 -17.765625 C 69.132812 -22.410156 71.0625 -28.53125 71.0625 -36.125 L 71.0625 -50.96875 C 69.0625 -53.664062 66.507812 -55.835938 63.40625 -57.484375 C 60.3125 -59.140625 57.113281 -59.96875 53.8125 -59.96875 C 49.519531 -59.96875 45.722656 -58.816406 42.421875 -56.515625 C 39.117188 -54.210938 36.519531 -51.085938 34.625 -47.140625 C 32.726562 -43.191406 31.78125 -38.671875 31.78125 -33.578125 Z M 47.078125 50.0625 C 47.078125 54.5625 48.070312 58.082031 50.0625 60.625 C 52.0625 63.175781 54.8125 64.453125 58.3125 64.453125 C 63.007812 64.453125 66.429688 62.476562 68.578125 58.53125 C 70.734375 54.582031 71.8125 48.765625 71.8125 41.078125 L 71.8125 14.546875 C 55.320312 26.140625 47.078125 37.976562 47.078125 50.0625 Z M 47.078125 50.0625 "/></g></g></g></g></g><g transform="matrix(1, 0, 0, 1, 699, 272)"><g clip-path="url(#b0f553409c)"><g fill="#000000" fill-opacity="1"><g transform="translate(57.079206, 198.289834)"><g><path d="M -18.65625 -2.296875 C -22.289062 -2.296875 -25.5625 -3.113281 -28.46875 -4.75 C -31.375 -6.394531 -33.644531 -8.632812 -35.28125 -11.46875 C -36.925781 -14.300781 -37.75 -17.445312 -37.75 -20.90625 C -37.75 -24.96875 -36.769531 -28.515625 -34.8125 -31.546875 C -32.851562 -34.578125 -30.070312 -36.785156 -26.46875 -38.171875 L -26.46875 -32.34375 C -28.707031 -31.3125 -30.429688 -29.820312 -31.640625 -27.875 C -32.859375 -25.9375 -33.46875 -23.613281 -33.46875 -20.90625 C -33.46875 -18.300781 -32.859375 -15.960938 -31.640625 -13.890625 C -30.429688 -11.828125 -28.710938 -10.207031 -26.484375 -9.03125 C -24.265625 -7.851562 -21.65625 -7.265625 -18.65625 -7.265625 C -15.695312 -7.265625 -13.101562 -7.851562 -10.875 -9.03125 C -8.65625 -10.207031 -6.9375 -11.828125 -5.71875 -13.890625 C -4.507812 -15.960938 -3.90625 -18.300781 -3.90625 -20.90625 C -3.90625 -23.613281 -4.5 -25.9375 -5.6875 -27.875 C -6.882812 -29.820312 -8.609375 -31.3125 -10.859375 -32.34375 L -10.859375 -38.171875 C -7.285156 -36.785156 -4.523438 -34.578125 -2.578125 -31.546875 C -0.640625 -28.515625 0.328125 -24.96875 0.328125 -20.90625 C 0.328125 -17.445312 -0.484375 -14.300781 -2.109375 -11.46875 C -3.734375 -8.632812 -5.988281 -6.394531 -8.875 -4.75 C -11.757812 -3.113281 -15.019531 -2.296875 -18.65625 -2.296875 Z M -18.65625 -2.296875 "/></g></g></g><g fill="#000000" fill-opacity="1"><g transform="translate(57.079206, 157.024314)"><g><path d="M -34.0625 -6.625 C -34.0625 -5.695312 -34.378906 -4.910156 -35.015625 -4.265625 C -35.660156 -3.628906 -36.445312 -3.3125 -37.375 -3.3125 C -38.300781 -3.3125 -39.082031 -3.628906 -39.71875 -4.265625 C -40.363281 -4.910156 -40.6875 -5.695312 -40.6875 -6.625 C -40.6875 -7.519531 -40.363281 -8.28125 -39.71875 -8.90625 C -39.082031 -9.53125 -38.300781 -9.84375 -37.375 -9.84375 C -36.445312 -9.84375 -35.660156 -9.53125 -35.015625 -8.90625 C -34.378906 -8.28125 -34.0625 -7.519531 -34.0625 -6.625 Z M -29.296875 -8.984375 L 0 -8.984375 L 0 -4.109375 L -29.296875 -4.109375 Z M -29.296875 -8.984375 "/></g></g></g><g fill="#000000" fill-opacity="1"><g transform="translate(57.079206, 143.874936)"><g><path d="M 0 -20.484375 L -12.9375 -8.984375 L 0 -8.984375 L 0 -4.109375 L -39.5625 -4.109375 L -39.5625 -8.984375 L -16.3125 -8.984375 L -29.296875 -20.265625 L -29.296875 -27.0625 L -14.703125 -13.265625 L 0 -27.109375 Z M 0 -20.484375 "/></g></g></g><g fill="#000000" fill-opacity="1"><g transform="translate(57.079206, 116.346791)"><g/></g></g><g fill="#000000" fill-opacity="1"><g transform="translate(57.079206, 102.074922)"><g><path d="M -37.265625 -30.203125 L -14.0625 -18.078125 L 0 -18.078125 L 0 -13.203125 L -14.0625 -13.203125 L -37.265625 -1.015625 L -37.265625 -6.421875 L -18.390625 -15.609375 L -37.265625 -24.8125 Z M -37.265625 -30.203125 "/></g></g></g><g fill="#000000" fill-opacity="1"><g transform="translate(57.079206, 70.858527)"><g><path d="M -14.75 -2.296875 C -17.75 -2.296875 -20.378906 -2.898438 -22.640625 -4.109375 C -24.910156 -5.328125 -26.664062 -6.992188 -27.90625 -9.109375 C -29.15625 -11.234375 -29.78125 -13.597656 -29.78125 -16.203125 C -29.78125 -18.765625 -29.226562 -20.988281 -28.125 -22.875 C -27.019531 -24.769531 -25.628906 -26.179688 -23.953125 -27.109375 L -29.296875 -27.109375 L -29.296875 -32.03125 L 0 -32.03125 L 0 -27.109375 L -5.453125 -27.109375 C -3.742188 -26.148438 -2.328125 -24.710938 -1.203125 -22.796875 C -0.078125 -20.890625 0.484375 -18.671875 0.484375 -16.140625 C 0.484375 -13.546875 -0.15625 -11.195312 -1.4375 -9.09375 C -2.726562 -6.988281 -4.53125 -5.328125 -6.84375 -4.109375 C -9.15625 -2.898438 -11.789062 -2.296875 -14.75 -2.296875 Z M -14.703125 -27.109375 C -16.910156 -27.109375 -18.832031 -26.660156 -20.46875 -25.765625 C -22.113281 -24.878906 -23.375 -23.675781 -24.25 -22.15625 C -25.125 -20.644531 -25.5625 -18.976562 -25.5625 -17.15625 C -25.5625 -15.34375 -25.128906 -13.6875 -24.265625 -12.1875 C -23.410156 -10.6875 -22.164062 -9.488281 -20.53125 -8.59375 C -18.894531 -7.707031 -16.96875 -7.265625 -14.75 -7.265625 C -12.507812 -7.265625 -10.5625 -7.707031 -8.90625 -8.59375 C -7.25 -9.488281 -5.984375 -10.6875 -5.109375 -12.1875 C -4.234375 -13.6875 -3.796875 -15.34375 -3.796875 -17.15625 C -3.796875 -18.976562 -4.234375 -20.644531 -5.109375 -22.15625 C -5.984375 -23.675781 -7.25 -24.878906 -8.90625 -25.765625 C -10.5625 -26.660156 -12.492188 -27.109375 -14.703125 -27.109375 Z M -14.703125 -27.109375 "/></g></g></g><g fill="#000000" fill-opacity="1"><g transform="translate(57.079206, 34.724468)"><g><path d="M -29.828125 -18.65625 C -29.828125 -20.863281 -29.351562 -22.859375 -28.40625 -24.640625 C -27.46875 -26.429688 -26.050781 -27.832031 -24.15625 -28.84375 C -22.269531 -29.863281 -19.972656 -30.375 -17.265625 -30.375 L 0 -30.375 L 0 -25.5625 L -16.578125 -25.5625 C -19.492188 -25.5625 -21.726562 -24.828125 -23.28125 -23.359375 C -24.832031 -21.898438 -25.609375 -19.90625 -25.609375 -17.375 C -25.609375 -14.8125 -24.804688 -12.769531 -23.203125 -11.25 C -21.597656 -9.738281 -19.265625 -8.984375 -16.203125 -8.984375 L 0 -8.984375 L 0 -4.109375 L -39.5625 -4.109375 L -39.5625 -8.984375 L -25.125 -8.984375 C -26.625 -9.941406 -27.78125 -11.265625 -28.59375 -12.953125 C -29.414062 -14.648438 -29.828125 -16.550781 -29.828125 -18.65625 Z M -29.828125 -18.65625 "/></g></g></g></g></g></svg>